<?xml version="1.0" standalone="no"?>
<!DOCTYPE svg PUBLIC "-//W3C//DTD SVG 20010904//EN"
 "http://www.w3.org/TR/2001/REC-SVG-20010904/DTD/svg10.dtd">
<svg version="1.0" xmlns="http://www.w3.org/2000/svg"
 width="176.000000pt" height="162.000000pt" viewBox="0 0 176.000000 162.000000"
 preserveAspectRatio="xMidYMid meet">

<g transform="translate(0.000000,162.000000) scale(0.100000,-0.100000)"
fill="#000000" stroke="none">
<path d="M0 810 l0 -810 880 0 880 0 0 810 0 810 -880 0 -880 0 0 -810z m980
625 c0 -37 4 -65 10 -65 6 0 10 -13 10 -29 0 -62 13 -121 26 -121 8 0 14 -11
14 -25 0 -16 6 -25 15 -25 11 0 15 -11 15 -40 0 -22 5 -40 10 -40 6 0 10 -123
10 -350 0 -304 2 -350 15 -350 12 0 15 -14 15 -65 0 -49 4 -67 15 -71 11 -5
15 -21 15 -61 0 -33 4 -52 10 -48 6 4 10 103 10 266 0 224 2 259 15 259 10 0
15 11 15 35 l0 35 75 0 75 0 0 -35 0 -34 68 -4 67 -3 -77 -2 -78 -2 0 35 0 35
-58 0 -58 0 4 -35 c4 -30 1 -35 -17 -35 -21 0 -21 -2 -21 -270 l0 -270 -25 0
c-24 0 -25 3 -25 55 0 42 -3 55 -15 55 -12 0 -15 14 -15 65 0 51 -3 65 -15 65
-13 0 -15 46 -15 350 0 302 -2 351 -15 356 -9 4 -15 19 -15 40 0 24 -5 34 -15
34 -9 0 -15 9 -15 21 0 11 -7 27 -15 35 -8 9 -15 30 -16 47 -1 18 -4 43 -8 57
-6 20 -10 10 -16 -42 -4 -42 -12 -69 -21 -72 -8 -3 -14 -14 -14 -25 0 -10 -7
-21 -15 -25 -9 -3 -15 -19 -15 -41 0 -19 -4 -35 -10 -35 -6 0 -10 -125 -10
-355 0 -309 -2 -355 -15 -355 -12 0 -15 -14 -15 -65 0 -37 -4 -65 -10 -65 -5
0 -10 -25 -10 -55 l0 -55 -50 0 -50 0 0 240 0 240 -45 0 -45 0 0 40 c0 33 -3
40 -20 40 -17 0 -20 -7 -20 -40 0 -33 -3 -40 -20 -40 -19 0 -20 -7 -20 -240
l0 -240 -65 0 -65 0 0 330 c0 323 0 330 -20 330 -18 0 -20 7 -20 70 l0 70 -55
0 c-51 0 -55 2 -55 24 0 16 -7 26 -22 29 -27 8 -38 1 -38 -24 0 -10 -6 -19
-13 -19 -16 0 -27 -231 -27 -558 0 -108 -2 -193 -4 -191 -2 2 -6 176 -10 387
-6 341 -5 382 8 382 10 0 16 9 16 25 0 14 6 25 14 25 7 0 34 3 60 6 45 7 46 6
46 -20 0 -25 2 -26 60 -26 l60 0 0 -70 c0 -63 2 -70 20 -70 20 0 20 -7 20
-325 0 -318 0 -325 20 -325 19 0 20 7 20 240 0 233 1 240 20 240 17 0 20 7 20
40 l0 40 70 0 70 0 0 -40 0 -40 40 0 40 0 2 -242 c1 -134 3 -219 5 -190 3 34
9 55 19 59 10 4 14 22 14 64 0 46 3 59 15 59 13 0 15 46 15 350 0 302 2 351
15 356 9 4 15 19 15 40 0 24 5 34 15 34 9 0 15 9 15 25 0 14 6 25 14 25 13 0
26 59 26 121 0 16 5 29 10 29 6 0 10 28 10 65 0 51 3 65 15 65 12 0 15 -14 15
-65z m668 -952 l-2 -68 -3 62 -4 62 -82 4 -82 3 88 2 87 2 -2 -67z"/>
</g>
</svg>
